<?xml version="1.0" encoding="utf-8"?>
<!-- Generator: Adobe Illustrator 21.1.0, SVG Export Plug-In . SVG Version: 6.00 Build 0)  -->
<svg version="1.1" id="Layer_1" xmlns="http://www.w3.org/2000/svg" xmlns:xlink="http://www.w3.org/1999/xlink" x="0px" y="0px"
	 viewBox="0 0 250 30" style="enable-background:new 0 0 250 30;" xml:space="preserve">
<style type="text/css">
	.st0{fill:#FFFFFF;}
</style>
<path class="st0" d="M12,23.2c-3.1,0-5.8-1.1-7.9-3.4c-2-2.1-3-4.8-3-7.9c0-3,1.1-5.7,3.2-7.7C6.4,2.1,9,1,12,1
	c2.2,0,4.2,0.6,6.1,1.9V1.4H22v7.1h-5.5c-1.1-1.5-2.6-2.2-4.4-2.2c-3.2,0-5.8,2.5-5.8,5.8c0,3.2,2.6,5.9,5.6,5.9c2,0,3.8-1.1,4.9-3
	h5.7C21.2,20.2,17.3,23.2,12,23.2 M32.4,18.6c-2.1,0-3.8-1.8-3.8-4.1c0-2.3,1.7-4.1,3.8-4.1c2.1,0,3.8,1.8,3.8,4.1
	C36.2,16.8,34.5,18.6,32.4,18.6 M26.1,8.3c-1.7,1.6-2.5,3.8-2.5,6.2c0,2.4,0.9,4.5,2.5,6.2c1.7,1.6,3.9,2.5,6.3,2.5
	c2.4,0,4.6-0.9,6.3-2.5c1.7-1.6,2.5-3.8,2.5-6.2c0-2.4-0.9-4.5-2.5-6.2c-1.7-1.6-3.8-2.5-6.3-2.5C30,5.8,27.8,6.7,26.1,8.3 M44,18.4
	h-2.1v4.4h8.6v-4.4h-1.9v-3.3c0-3,1.2-4.3,4.2-4.5V6c-2.1,0.1-3.5,0.8-4.4,2.7V6.3h-6.3v4.3H44V18.4z M83.8,18.6
	c-2.1,0-3.8-1.8-3.8-4.1c0-2.3,1.7-4.1,3.8-4.1c2.1,0,3.8,1.8,3.8,4.1C87.7,16.8,85.9,18.6,83.8,18.6 M77.6,8.3
	C75.9,10,75,12.1,75,14.5c0,2.4,0.9,4.5,2.5,6.2c1.7,1.6,3.9,2.5,6.3,2.5c2.4,0,4.6-0.9,6.3-2.5c1.7-1.6,2.5-3.8,2.5-6.2
	c0-2.4-0.9-4.5-2.5-6.2c-1.7-1.6-3.8-2.5-6.3-2.5C81.4,5.8,79.2,6.7,77.6,8.3 M95.2,18.4h-2.1v4.4h8.6v-4.4h-1.9v-3.3
	c0-3,1.2-4.3,4.2-4.5V6c-2.1,0.1-3.5,0.8-4.4,2.7V6.3h-6.3v4.3h1.9V18.4z M113.5,18.6c-2.3,0-4-1.7-4-4.1c0-2.4,1.7-4.1,4-4.1
	c2.3,0,4,1.7,4,4.1C117.5,16.9,115.8,18.6,113.5,18.6 M112.7,23c2.1,0,3.7-0.7,4.8-2.1v1.8h6.6v-4.4h-1.8v-7.8h1.8V6.3h-6.3v2
	c-1.2-1.6-2.8-2.3-5-2.3c-4.6,0-8.1,3.5-8.1,8.5C104.6,19.5,108,23,112.7,23 M127.6,22.8h6.3v-4.4h-1.6v-7.8h2.1V6.3h-2.1V1.4h-4.8
	v4.9h-2.1v4.3h2.1V22.8z M137.9,5.4h4.7v-4h-4.7V5.4z M137.9,18.4h-2.1v4.4h8.8v-4.4h-2.1V6.3h-6.7v4.3h2V18.4z M154.2,18.6
	c-2.1,0-3.8-1.8-3.8-4.1c0-2.3,1.7-4.1,3.8-4.1c2.1,0,3.8,1.8,3.8,4.1C158,16.8,156.3,18.6,154.2,18.6 M147.9,8.3
	c-1.7,1.6-2.5,3.8-2.5,6.2c0,2.4,0.9,4.5,2.5,6.2c1.7,1.6,3.9,2.5,6.3,2.5c2.4,0,4.6-0.9,6.3-2.5c1.7-1.6,2.5-3.8,2.5-6.2
	c0-2.4-0.9-4.5-2.5-6.2c-1.7-1.6-3.8-2.5-6.3-2.5C151.8,5.8,149.6,6.7,147.9,8.3 M165.8,18.4h-2.1v4.4h8.6v-4.4h-1.9v-4.7
	c0-2.2,1.2-3.4,2.9-3.4c2,0,2.6,1.1,2.6,3.4v9.1h6.9v-4.4h-2.1v-6.1c0-4.1-2.1-6.3-5.7-6.3c-2.2,0-3.7,0.9-4.7,2.5V6.3h-6.4v4.3h2
	V18.4z M200.8,11.3V6.2h1.4c2.3,0,3.4,0.7,3.4,2.5c0,1.9-1.3,2.6-3.9,2.6H200.8z M200.7,18.3v-2.5h1.5c2.7,0,4.7-0.3,6.3-1.7
	c1.6-1.5,2.4-3.3,2.4-5.6c0-2.7-1-4.7-2.9-6c-1.4-1-3.2-1.2-5.4-1.2h-9.2v4.4h2.1l0,17h7.2v-4.4H200.7z M220,18.6
	c-2.1,0-3.8-1.8-3.8-4.1c0-2.3,1.7-4.1,3.8-4.1c2.1,0,3.8,1.8,3.8,4.1C223.8,16.8,222.1,18.6,220,18.6 M213.7,8.3
	c-1.7,1.6-2.5,3.8-2.5,6.2c0,2.4,0.9,4.5,2.5,6.2c1.7,1.6,3.9,2.5,6.3,2.5c2.4,0,4.6-0.9,6.3-2.5c1.7-1.6,2.5-3.8,2.5-6.2
	c0-2.4-0.9-4.5-2.5-6.2c-1.7-1.6-3.8-2.5-6.3-2.5C217.6,5.8,215.4,6.7,213.7,8.3 M240,18.6c-2.3,0-4-1.7-4-4.1c0-2.4,1.7-4.1,4-4.1
	c2.3,0,4,1.7,4,4.1C244,16.9,242.3,18.6,240,18.6 M231.4,28h6.3v-4.4h-1.6v-2.7c1.1,1.4,2.7,2.1,4.8,2.1c4.6,0,8.1-3.5,8.1-8.5
	c0-5-3.4-8.5-8.1-8.5c-2.3,0-3.9,0.8-5,2.3v-2h-6.3v4.3h1.8L231.4,28z M65,18.6c-2.3,0-4-1.7-4-4.1c0-2.4,1.7-4.1,4-4.1
	c2.3,0,4,1.7,4,4.1C68.9,16.9,67.2,18.6,65,18.6 M56.3,28h6.3v-4.4H61v-2.7c1.1,1.4,2.7,2.1,4.8,2.1c4.6,0,8.1-3.5,8.1-8.5
	c0-5-3.4-8.5-8.1-8.5c-2.3,0-3.9,0.8-5,2.3v-2h-6.3v4.3h1.8L56.3,28z"/>
</svg>
