<svg xmlns="http://www.w3.org/2000/svg" width="130" height="130" viewBox="0 0 130 130"><defs><style>.a{fill:#fff;}</style></defs><title>roundel</title><path class="a" d="M65,8A57,57,0,1,1,8,65,57.065,57.065,0,0,1,65,8m0-7a64,64,0,1,0,64,64A64,64,0,0,0,65,1Z"/><path class="a" d="M65,43A22,22,0,1,1,43,65,22.025,22.025,0,0,1,65,43m0-4A26,26,0,1,0,91,65,26,26,0,0,0,65,39Z"/><circle class="a" cx="54.5" cy="54.5" r="4.5"/><path class="a" d="M125.5,1.5a3,3,0,1,1-3,3,3,3,0,0,1,3-3m0-.5A3.5,3.5,0,1,0,129,4.5,3.5,3.5,0,0,0,125.5,1Z"/><path class="a" d="M124,6.552V2.5h1.616a1.14,1.14,0,0,1,1.3,1.2,1,1,0,0,1-.741,1.044l.892,1.807h-.859l-.763-1.65h-.668v1.65Zm.775-2.278h.572c.606,0,.791-.191.791-.573s-.23-.572-.657-.572h-.707Z"/></svg>